<?xml version="1.0" encoding="UTF-8" standalone="no"?>
<svg xmlns="http://www.w3.org/2000/svg" width="300" height="600" viewBox="0 0 300 600">
  <!-- Phone frame -->
  <rect x="10" y="10" width="280" height="580" rx="20" ry="20" fill="#333" />
  <rect x="20" y="20" width="260" height="560" rx="10" ry="10" fill="#1976D2" />
  
  <!-- App header -->
  <rect x="20" y="20" width="260" height="60" fill="#2196F3" />
  <text x="40" y="55" font-family="Arial" font-size="18" fill="white">Net Scout</text>
  <circle cx="250" cy="50" r="15" fill="white" opacity="0.3" />
  
  <!-- List items -->
  <rect x="30" y="90" width="240" height="70" rx="5" ry="5" fill="white" opacity="0.9" />
  <text x="45" y="120" font-family="Arial" font-size="16" fill="#333">WiFi Network 1</text>
  <text x="45" y="145" font-family="Arial" font-size="12" fill="#666">Channel 6 • WPA2 • -45 dBm</text>
  <rect x="230" y="115" width="30" height="20" rx="10" ry="10" fill="#4CAF50" />
  
  <rect x="30" y="170" width="240" height="70" rx="5" ry="5" fill="white" opacity="0.9" />
  <text x="45" y="200" font-family="Arial" font-size="16" fill="#333">WiFi Network 2</text>
  <text x="45" y="225" font-family="Arial" font-size="12" fill="#666">Channel 11 • WPA2 • -58 dBm</text>
  <rect x="230" y="195" width="30" height="20" rx="10" ry="10" fill="#8BC34A" />
  
  <rect x="30" y="250" width="240" height="70" rx="5" ry="5" fill="white" opacity="0.9" />
  <text x="45" y="280" font-family="Arial" font-size="16" fill="#333">WiFi Network 3</text>
  <text x="45" y="305" font-family="Arial" font-size="12" fill="#666">Channel 1 • WPA2 • -67 dBm</text>
  <rect x="230" y="275" width="30" height="20" rx="10" ry="10" fill="#FFEB3B" />
  
  <rect x="30" y="330" width="240" height="70" rx="5" ry="5" fill="white" opacity="0.9" />
  <text x="45" y="360" font-family="Arial" font-size="16" fill="#333">WiFi Network 4</text>
  <text x="45" y="385" font-family="Arial" font-size="12" fill="#666">Channel 6 • Open • -72 dBm</text>
  <rect x="230" y="355" width="30" height="20" rx="10" ry="10" fill="#FF9800" />
  
  <rect x="30" y="410" width="240" height="70" rx="5" ry="5" fill="white" opacity="0.9" />
  <text x="45" y="440" font-family="Arial" font-size="16" fill="#333">WiFi Network 5</text>
  <text x="45" y="465" font-family="Arial" font-size="12" fill="#666">Channel 11 • WPA • -85 dBm</text>
  <rect x="230" y="435" width="30" height="20" rx="10" ry="10" fill="#F44336" />
  
  <!-- Floating action button -->
  <circle cx="250" cy="520" r="25" fill="#FF4081" />
  <text x="243" y="525" font-family="Arial" font-size="20" fill="white">+</text>
</svg>
